<?xml version="1.0" encoding="UTF-8" standalone="no"?>
<!-- Created with Inkscape (http://www.inkscape.org/) -->

<svg
   width="8.4344406mm"
   height="62.089317mm"
   viewBox="0 0 8.4344406 62.089317"
   version="1.1"
   id="svg5"
   xml:space="preserve"
   xmlns:inkscape="http://www.inkscape.org/namespaces/inkscape"
   xmlns:sodipodi="http://sodipodi.sourceforge.net/DTD/sodipodi-0.dtd"
   xmlns="http://www.w3.org/2000/svg"
   xmlns:svg="http://www.w3.org/2000/svg"><sodipodi:namedview
     id="namedview7"
     pagecolor="#ffffff"
     bordercolor="#000000"
     borderopacity="0.25"
     inkscape:showpageshadow="2"
     inkscape:pageopacity="0.0"
     inkscape:pagecheckerboard="0"
     inkscape:deskcolor="#d1d1d1"
     inkscape:document-units="mm"
     showgrid="false" /><defs
     id="defs2"><clipPath
       clipPathUnits="userSpaceOnUse"
       id="clipPath86"><path
         id="path87"
         style="fill:#ff0000;fill-opacity:1;fill-rule:nonzero;stroke:none;stroke-width:0.265468"
         d="m -63.943001,204.10188 -3.998318,5.3e-4 v 4.52647 c 0.0011,-4e-5 0.0021,4e-5 0.0031,0 0.01202,-5.3e-4 0.0241,-7e-5 0.03613,0 0.0076,0 0.01514,2.1e-4 0.0227,5.4e-4 0.0327,-0.0196 0.07764,-0.032 0.13677,-0.0302 0.02621,8e-4 0.01229,5.3e-4 0.04181,0 0.01858,-8e-4 0.03713,-0.002 0.05574,-0.001 0.0086,0 0.02545,0.002 0.03355,0.003 0.0081,10e-4 0.01617,0.002 0.02426,0.002 0.03204,0.001 0.04264,0.002 0.07639,-0.001 0.01755,-0.002 0.03524,-0.004 0.05264,-0.007 0.01028,-0.002 0.02064,-0.005 0.03097,-0.006 0.0093,-0.001 0.01847,-0.001 0.02787,-0.002 0.0148,-2.7e-4 0.02957,-0.001 0.04439,-0.001 0.06169,1.5e-4 0.0463,0.003 0.112512,5.3e-4 0.01903,-0.001 0.03829,-0.003 0.05729,-0.004 0.01548,-0.001 0.03099,2.7e-4 0.04645,-0.002 0.0068,0 0.01316,-5.3e-4 0.01961,-5.3e-4 0.0065,0 0.01284,-8e-4 0.01961,0.002 0.0058,0.001 0.01176,0.002 0.01755,0.003 0.0468,0.005 0.09415,0.003 0.140898,0.009 0.09572,0.0101 0.01504,0.003 0.111999,0.008 0.01408,0.001 0.02823,0.002 0.04232,0.003 0.04393,0.002 0.08764,8e-4 0.131609,0.001 0.0148,2.3e-4 0.02956,6e-5 0.04439,5.3e-4 0.01,0 0.06092,0.004 0.07277,0.004 0.03932,8e-4 0.07886,2e-5 0.118189,0.002 2.64e-4,-1e-5 5.28e-4,0 0.0011,0 0.0077,-8e-5 0.01551,-8e-5 0.02373,5.4e-4 0.05101,0.003 0.04407,0.003 0.09961,0.004 0.01934,2.5e-4 0.03848,-8e-4 0.05781,0 0.05308,0.002 0.06236,0.006 0.09961,0.009 0.0079,5.3e-4 0.0158,10e-4 0.02373,0.002 5.29e-4,1e-5 0.0011,0 0.0016,0 0.0069,2e-5 0.01382,1.7e-4 0.02064,5.3e-4 0.02696,0.002 0.05719,0.005 0.08412,0.005 0.0011,-1.1e-4 0.0021,9e-5 0.0031,0 0.03939,-0.004 0.0787,-0.008 0.118191,-0.008 0.02508,0 0.05631,0.002 0.08154,0.003 0.01546,5.3e-4 0.03097,-1.5e-4 0.04645,0 0.0308,-0.0241 0.07779,-0.0404 0.141416,-0.0401 0.01123,7e-5 0.174597,0.001 0.175995,0.001 0.04015,0.001 0.08011,0.003 0.120255,0.005 0.03464,0.001 0.06964,0.002 0.104254,0.004 0.169772,0.009 0.02763,0.005 0.163089,0.008 0.04832,-0.005 0.0964,-0.002 0.144513,0.003 0.02331,0.002 0.04686,0.006 0.07019,0.008 0.0046,5.4e-4 0.0093,8e-4 0.01393,0.001 0.01358,-1.8e-4 0.02717,-0.001 0.04077,-0.001 0.02027,4e-5 0.04065,2.7e-4 0.0609,0.001 0.104392,0.0134 -0.01578,-0.002 0.106321,0.013 0.0095,0.001 0.01889,0.002 0.02839,0.004 0.02156,-0.007 0.04654,-0.0124 0.07535,-0.013 0.0076,-1.6e-4 0.01559,-2.6e-4 0.02373,0 0.01842,0.001 0.03682,0.003 0.05522,0.003 0.04476,0.001 0.05719,-2.5e-4 0.09961,-0.001 0.02431,-0.001 0.05426,-0.002 0.07845,0.001 0.01348,0.002 0.02694,0.005 0.04026,0.008 0.0051,10e-4 0.0099,0.002 0.01496,0.003 0.0075,0.002 0.0143,0.003 0.02117,0.005 0.03046,1.6e-4 0.06092,2.7e-4 0.09135,0.001 0.03075,0 0.06163,0.002 0.09238,0.002 l 0.0072,0.002 c 0.0153,1.9e-4 0.03067,2.5e-4 0.04593,0.002 z m -0.279217,5.58178 v 5.3e-4 c 2.65e-4,2e-5 7.93e-4,-2e-5 0.0011,0 -2.59e-4,-2e-4 -7.92e-4,-1.5e-4 -0.0011,-5.3e-4 z m 0.0011,5.3e-4 v 5.4e-4 c 2.65e-4,2e-5 7.93e-4,-2e-5 0.0011,0 -2.64e-4,-2.2e-4 -7.92e-4,-7e-5 -0.0011,-5.4e-4 z m 0.0016,0 v 5.4e-4 5.3e-4 c 0.0021,0.002 0.0042,0.003 0.0062,0.005 0.03423,0.0236 0.06646,0.0578 0.096,0.10782 0.01374,0.0237 -0.05131,0.0169 -0.0769,0.025 -0.255795,0.0507 -0.285915,0.0552 -0.385536,0.0724 0.0011,0.0167 0.0018,0.0319 0.0016,0.0448 -2.64e-4,0.0156 -0.0026,0.0374 -0.0052,0.0599 0.01504,0.002 0.03069,0.005 0.04748,0.009 0.102849,0.0274 0.04486,0.002 0.161544,0.0995 -0.01535,0.0191 -0.03011,0.0387 -0.0449,0.0583 0.05108,-0.0187 0.109415,-0.0471 0.09084,-0.0172 -0.0064,0.0103 -0.01326,0.0194 -0.02064,0.0281 0.0186,0.002 0.03532,0.005 0.04542,0.007 0.02853,0.006 0.0035,0.0557 -0.02735,0.0839 0.0027,0.007 0.0052,0.0137 0.0072,0.0208 0.0079,0.0282 -0.02821,0.0161 -0.06864,0.001 -0.08345,0.009 -0.167933,0.001 -0.252379,-0.008 -0.0013,0.008 -0.0021,0.0152 -0.0041,0.0245 -0.0031,0.0146 -0.01369,0.0239 -0.02787,0.0297 h 0.733913 v -0.63548 c -0.09221,-0.006 -0.184415,-0.0116 -0.276638,-0.0172 z m -3.721681,0.0245 v 5.3e-4 0.62715 h 0.816488 c -0.0066,-0.0125 -0.0098,-0.0278 -0.0077,-0.0469 0.0042,-0.0393 0.03196,-0.0689 0.06245,-0.0974 -0.009,-0.004 -0.01805,-0.009 -0.02632,-0.0146 -0.07539,-0.002 -0.152187,0.003 -0.226575,-0.004 0.116349,0.0641 0.04375,0.1849 -0.06968,0.10991 -0.190872,-0.12619 -0.251766,-0.12419 -0.332891,-0.36775 -0.02027,-0.0609 -0.03565,-0.12935 -0.04129,-0.19897 -0.0582,-0.002 -0.117065,-0.003 -0.174447,-0.008 z m 0.293668,0.0193 c 0.0055,0.0556 0.0195,0.112 0.03974,0.16564 0.0115,-0.0749 0.01773,-0.12639 0.02323,-0.15887 -0.02124,-0.002 -0.04097,-0.005 -0.06297,-0.007 z m 3.07654,0.0547 v 5.3e-4 c 0.0013,-2.4e-4 0.0024,-9e-5 0.0036,-5.3e-4 -0.0013,-1.2e-4 -0.0024,1e-4 -0.0036,0 z m -3.022865,0.14532 v 5.3e-4 c 0.01097,0.0245 0.02309,0.0483 0.03716,0.0708 0.0026,-0.005 0.0064,-0.0105 0.0129,-0.0141 0.01755,-0.01 0.03563,-0.017 0.05419,-0.0224 0.0052,-0.0109 0.01274,-0.0193 0.02167,-0.025 -0.01768,-0.001 -0.03303,-0.002 -0.06193,-0.005 h -5.28e-4 c -0.01128,0.002 -0.02236,0.003 -0.02582,-0.003 -0.006,-5.3e-4 -0.01208,8e-4 -0.01807,-0.002 -0.005,-8e-4 -0.01274,-2e-4 -0.01961,0 z" /></clipPath></defs><g
     inkscape:label="Layer 1"
     inkscape:groupmode="layer"
     id="layer1"
     transform="translate(-109.91017,-28.119947)"><g
       id="layer1-1"
       style="display:inline"
       transform="translate(-10.243971,3.4383118)"><circle
         style="fill:#feae56;fill-opacity:1;stroke:#d34614;stroke-width:0.672;stroke-dasharray:none;stroke-opacity:1"
         id="path3"
         cx="165.46339"
         cy="113.01134"
         r="12.492142" /><path
         style="fill:#ffffff;fill-opacity:1;stroke:#d34614;stroke-width:0.587;stroke-dasharray:none;stroke-opacity:1"
         d="m 163.06472,114.51252 c 0,0 -3.76242,0.30404 -4.4845,1.90022 -0.73821,1.63184 -0.38005,3.07835 -0.38005,3.07835 h 14.89769 c 0,0 0.30404,-1.36816 -0.53205,-3.15436 -0.8361,-1.7862 -3.95246,-2.01423 -3.95246,-2.01423 0,0 -1.97622,1.59618 -5.54863,0.19002 z"
         id="path2" /><circle
         style="fill:#ffffff;fill-opacity:1;stroke:#d34614;stroke-width:0.587;stroke-dasharray:none;stroke-opacity:1"
         id="path1"
         cx="165.63464"
         cy="110.57703"
         r="4.8909059" /><path
         style="display:inline;fill:#feae56;fill-opacity:1;stroke:#d34614;stroke-width:0.720645;stroke-dasharray:none;stroke-opacity:1"
         id="rect4"
         width="40.709179"
         height="35.66478"
         x="91.418655"
         y="82.037842"
         d="m 96.181155,82.037842 h 31.184175 a 4.7625,4.7625 45 0 1 4.7625,4.7625 v 26.139778 a 4.7625,4.7625 135 0 1 -4.7625,4.7625 H 96.181155 a 4.7625,4.7625 45 0 1 -4.7625,-4.7625 V 86.800342 a 4.7625,4.7625 135 0 1 4.7625,-4.7625 z"
         transform="matrix(1.2461061,0,0,1.2461061,-41.446716,7.3977233)" /><path
         style="fill:#feae56;fill-opacity:1;stroke:#d34614;stroke-width:0.720645;stroke-dasharray:none;stroke-opacity:1"
         id="rect5"
         width="5.8408823"
         height="7.6993442"
         x="97.967514"
         y="77.435936"
         d="m 100.87793,77.435936 h 0.02 a 2.9104167,2.9104167 45 0 1 2.91042,2.910417 v 1.87851 a 2.9104167,2.9104167 135 0 1 -2.91042,2.910417 h -0.02 a 2.9104167,2.9104167 45 0 1 -2.910416,-2.910417 v -1.87851 a 2.9104167,2.9104167 135 0 1 2.910416,-2.910417 z"
         transform="matrix(1.2461061,0,0,1.2461061,-41.446716,7.3977233)" /><path
         style="fill:#feae56;fill-opacity:1;stroke:#d34614;stroke-width:0.720645;stroke-dasharray:none;stroke-opacity:1"
         id="rect5-7"
         width="5.8408823"
         height="7.6993442"
         x="120.35161"
         y="77.353333"
         d="m 123.26202,77.353333 h 0.02 a 2.9104167,2.9104167 45 0 1 2.91042,2.910416 v 1.878511 a 2.9104167,2.9104167 135 0 1 -2.91042,2.910417 h -0.02 a 2.9104167,2.9104167 45 0 1 -2.91041,-2.910417 v -1.878511 a 2.9104167,2.9104167 135 0 1 2.91041,-2.910416 z"
         transform="matrix(1.2461061,0,0,1.2461061,-41.446716,7.3977233)" /><circle
         style="display:inline;fill:#fe9756;fill-opacity:1;stroke:#d34614;stroke-width:0.999;stroke-dasharray:none;stroke-opacity:1"
         id="path8"
         cx="55.067745"
         cy="69.034065"
         r="16.270424"
         inkscape:export-filename="path8.svg"
         inkscape:export-xdpi="96"
         inkscape:export-ydpi="96" /><path
         style="display:inline;fill:#ffffff;fill-opacity:1;stroke-width:3.08938"
         d="m 54.757247,77.870994 c -0.997599,-0.932624 -1.987706,-1.816154 -3.654832,-3.261361 -2.046563,-1.774203 -2.818597,-2.514324 -3.480133,-3.3363 -0.742693,-0.92286 -1.228932,-1.937314 -1.448653,-3.022437 -0.19103,-0.943161 -0.230235,-2.344439 -0.08465,-3.02398 0.374493,-1.749241 1.225411,-2.953568 2.910217,-3.442022 0.639661,-0.185411 1.881528,-0.348595 2.522114,-0.239549 0.769711,0.131049 1.635237,0.51991 2.254997,1.013151 0.413548,0.32909 1.08752,1.092042 1.312011,1.485208 0.0402,0.07044 0.08041,0.128203 0.0894,0.128203 0.01,0 0.04769,-0.05499 0.08565,-0.122035 0.207261,-0.36326 0.662935,-0.901087 1.106248,-1.305917 0.650025,-0.593655 1.58602,-1.04895 2.464381,-1.198774 0.45033,-0.07681 1.451749,-0.0429 1.935291,0.04185 1.693596,0.297322 2.782214,1.424416 3.326037,3.020057 0.20726,0.608668 0.245966,0.883036 0.245966,1.755701 2.5e-5,0.852926 -0.03621,1.273291 -0.164061,1.900642 -0.248713,1.218943 -0.764642,2.226181 -1.697591,3.313001 -0.611469,0.712278 -1.368845,1.420636 -3.468222,3.243856 -1.3865,1.204061 -2.362423,2.072109 -3.026257,2.691619 -0.591068,0.551588 -0.796631,0.738273 -0.812013,0.737374 -0.005,-3.75e-4 -0.193277,-0.170803 -0.415595,-0.378513 z"
         id="path7" /><rect
         style="display:inline;fill:#fc7839;fill-opacity:1;stroke:none;stroke-width:0.632745;stroke-dasharray:none;stroke-opacity:1"
         id="rect8"
         width="0.97994375"
         height="46.617321"
         x="123.93395"
         y="24.681635" /><path
         style="fill:#fc7839;fill-opacity:1;stroke:none;stroke-width:0.4;stroke-dasharray:none;stroke-opacity:1"
         id="rect12"
         width="5.3320169"
         height="10.243668"
         x="165.1819"
         y="150.1151"
         d="m 167.82773,150.1151 h 0.0403 a 2.6458333,2.6458333 45 0 1 2.64584,2.64583 v 4.952 a 2.6458333,2.6458333 135 0 1 -2.64584,2.64583 h -0.0403 a 2.6458333,2.6458333 45 0 1 -2.64583,-2.64583 v -4.952 a 2.6458333,2.6458333 135 0 1 2.64583,-2.64583 z"
         transform="matrix(1.581862,0,0,1.581862,-141.14083,-166.89448)" /><path
         style="fill:#fc7839;fill-opacity:1;stroke:none;stroke-width:0.632745;stroke-dasharray:none;stroke-opacity:1"
         d="m 118.33426,87.750902 12.10681,-0.099 c 0,0 0.14237,-5.675677 -5.59719,-5.640686 -5.73968,0.03496 -6.40463,3.289816 -6.50962,5.739676 z"
         id="path14" /><rect
         style="fill:#fc7839;fill-opacity:1;stroke:#ffffff;stroke-width:1.67199;stroke-dasharray:none;stroke-opacity:1"
         id="rect15"
         width="39.023975"
         height="25.374315"
         x="90.93631"
         y="199.07613" /><path
         style="display:inline;fill:#fc7839;fill-opacity:1;stroke:none;stroke-width:0.4;stroke-dasharray:none;stroke-opacity:1"
         id="path15"
         d="m -29.020097,202.34882 h -4.396388 -4.396388 l 2.198194,-3.80739 2.198194,-3.80738 2.198194,3.80738 z"
         transform="matrix(4.7472227,0,0,2.6122244,269.05207,-325.69948)" /><path
         style="fill:#fc7839;fill-opacity:1;stroke:#ffffff;stroke-width:1.1;stroke-dasharray:none;stroke-opacity:1"
         d="m -67.083278,199.71668 c 1.653092,1.63745 3.306189,3.2749 4.959281,4.91235"
         id="path17"
         transform="matrix(4.7472227,0,0,4.5451986,428.90505,-725.79801)" /><path
         style="display:inline;fill:#fc7839;fill-opacity:1;stroke:#ffffff;stroke-width:1.1;stroke-dasharray:none;stroke-opacity:1"
         d="m -62.123997,204.62903 c -1.784938,-1.75436 -3.5447,-3.53917 -5.346187,-5.2736"
         id="path17-9"
         transform="matrix(-4.7472227,0,0,4.5451986,-207.91929,-725.82729)" /><path
         style="fill:#ffffff;fill-opacity:1;stroke:#ffffff;stroke-width:1.1;stroke-dasharray:none;stroke-opacity:1"
         id="rect18"
         width="2.8983164"
         height="5.1328964"
         x="-67.391388"
         y="204.65211"
         d="m -66.068471,204.65211 h 0.252483 a 1.3229167,1.3229167 45 0 1 1.322916,1.32292 v 2.48706 a 1.3229167,1.3229167 135 0 1 -1.322916,1.32292 h -0.252483 a 1.3229167,1.3229167 45 0 1 -1.322917,-1.32292 v -2.48706 a 1.3229167,1.3229167 135 0 1 1.322917,-1.32292 z"
         transform="matrix(4.597078,0,0,4.5549705,413.66878,-725.94648)"
         clip-path="url(#clipPath86)" /><path
         style="fill:#ffffff;fill-opacity:1;stroke:#ffffff;stroke-width:0.1;stroke-dasharray:none;stroke-opacity:1"
         d="m -67.983345,208.75587 c 1.331056,0 2.662117,0 3.993173,0"
         id="path89"
         transform="matrix(4.5912723,0,0,4.5912723,413.48912,-734.1964)" /><path
         style="display:inline;fill:#e4e0e0;fill-opacity:1;stroke:none;stroke-width:0.4;stroke-dasharray:none;stroke-opacity:1"
         id="path15-5"
         d="m -29.020097,202.34882 h -4.396388 -4.396388 l 2.198194,-3.80739 2.198194,-3.80738 2.198194,3.80738 z"
         transform="matrix(3.6019651,0,0,2.4277921,168.09806,-286.92216)" /><rect
         style="display:inline;fill:#e4e0e0;fill-opacity:1;stroke:none;stroke-width:1.54106;stroke-dasharray:none;stroke-opacity:1"
         id="rect15-4"
         width="29.658878"
         height="21.747229"
         x="32.846203"
         y="202.06952" /><path
         style="display:inline;fill:#fc7839;fill-opacity:1;stroke:#ffffff;stroke-width:1.1;stroke-dasharray:none;stroke-opacity:1"
         d="m -67.083278,199.71668 c 1.653092,1.63745 3.306189,3.2749 4.959281,4.91235"
         id="path17-0"
         transform="matrix(3.6019651,0,0,4.2242914,289.3054,-659.37104)" /><path
         style="display:inline;fill:#fc7839;fill-opacity:1;stroke:#ffffff;stroke-width:1.1;stroke-dasharray:none;stroke-opacity:1"
         d="m -62.123997,204.62903 c -1.784798,-1.75474 -3.544906,-3.53866 -5.346187,-5.2736"
         id="path17-9-1"
         transform="matrix(-3.6019651,0,0,4.2242914,-193.88643,-659.39825)" /><path
         style="display:inline;fill:#ffffff;fill-opacity:1;stroke-width:2.4897"
         d="m 47.298281,217.02246 c -0.803955,-0.75161 -1.601871,-1.46364 -2.94539,-2.62832 -1.649303,-1.4298 -2.271478,-2.02626 -2.804601,-2.68866 -0.59853,-0.74373 -0.990386,-1.56128 -1.167455,-2.43575 -0.153964,-0.76009 -0.185555,-1.88939 -0.06823,-2.43702 0.301799,-1.40971 0.987549,-2.38025 2.345315,-2.77388 0.515496,-0.14955 1.516304,-0.28089 2.032543,-0.19298 0.620304,0.10577 1.317822,0.41896 1.81728,0.81647 0.333286,0.26513 0.876419,0.88008 1.057337,1.19694 0.03257,0.0567 0.06479,0.10332 0.07204,0.10332 0.0081,0 0.03842,-0.0441 0.06903,-0.0984 0.167028,-0.2928 0.534252,-0.72615 0.891514,-1.05243 0.523849,-0.47842 1.278154,-0.84533 1.986018,-0.96609 0.362915,-0.062 1.169948,-0.035 1.559632,0.035 1.364848,0.23956 2.242156,1.14794 2.680418,2.43383 0.167028,0.49051 0.198234,0.71161 0.198234,1.41489 2.1e-5,0.68737 -0.02907,1.02616 -0.132214,1.53172 -0.200441,0.98235 -0.616217,1.79405 -1.368071,2.66993 -0.492776,0.574 -1.103137,1.14485 -2.795005,2.61416 -1.117363,0.97037 -1.903852,1.6699 -2.438828,2.16916 -0.476336,0.44452 -0.641994,0.59498 -0.654393,0.59425 -0.0039,-3.2e-4 -0.15575,-0.13765 -0.334931,-0.30506 z"
         id="path7-0" /></g></g></svg>
