<?xml version="1.0" encoding="UTF-8"?>
<!DOCTYPE svg PUBLIC "-//W3C//DTD SVG 1.1//EN" "http://www.w3.org/Graphics/SVG/1.1/DTD/svg11.dtd">
<svg xmlns="http://www.w3.org/2000/svg" version="1.1" width="413px" height="441px" style="shape-rendering:geometricPrecision; text-rendering:geometricPrecision; image-rendering:optimizeQuality; fill-rule:evenodd; clip-rule:evenodd" xmlns:xlink="http://www.w3.org/1999/xlink">
<g><path style="opacity:1" fill="#fefefe" d="M -0.5,-0.5 C 137.167,-0.5 274.833,-0.5 412.5,-0.5C 412.5,146.5 412.5,293.5 412.5,440.5C 274.833,440.5 137.167,440.5 -0.5,440.5C -0.5,293.5 -0.5,146.5 -0.5,-0.5 Z"/></g>
<g><path style="opacity:1" fill="#d44918" d="M 186.5,31.5 C 259.056,27.3739 317.556,53.7073 362,110.5C 407.686,178.881 411.353,249.548 373,322.5C 329.186,390.993 266.352,422.826 184.5,418C 99.8444,405.002 44.3444,357.836 18,276.5C -0.309078,197.776 20.1909,131.276 79.5,77C 110.745,51.3758 146.412,36.2092 186.5,31.5 Z"/></g>
<g><path style="opacity:1" fill="#fdad55" d="M 188.5,41.5 C 251.623,38.1343 304.123,59.8009 346,106.5C 394.729,169.841 402.063,237.841 368,310.5C 335.522,367.849 286.355,400.349 220.5,408C 143.737,411.208 85.2372,380.375 45,315.5C 13.6875,255.145 13.6875,194.811 45,134.5C 77.6835,80.2349 125.517,49.2349 188.5,41.5 Z"/></g>
<g><path style="opacity:1" fill="#d44917" d="M 198.5,109.5 C 243.974,108.628 272.807,129.962 285,173.5C 288.855,199.597 282.022,222.43 264.5,242C 279.116,244.311 292.449,249.645 304.5,258C 315.895,269.481 322.728,283.315 325,299.5C 325.752,308.868 325.585,318.201 324.5,327.5C 246.833,327.5 169.167,327.5 91.5,327.5C 86.8592,307.017 89.6926,287.684 100,269.5C 106.05,262.784 113.216,257.617 121.5,254C 131.893,250.068 142.56,247.068 153.5,245C 129.736,220.016 123.569,191.182 135,158.5C 147.651,130.946 168.817,114.613 198.5,109.5 Z"/></g>
<g><path style="opacity:1" fill="#fefefd" d="M 198.5,118.5 C 238.384,117.239 264.217,135.572 276,173.5C 281.107,209.456 267.607,235.623 235.5,252C 196.214,265.095 166.047,253.928 145,218.5C 130.416,180.983 139.583,150.816 172.5,128C 180.764,123.352 189.43,120.185 198.5,118.5 Z"/></g>
<g><path style="opacity:1" fill="#fefefe" d="M 254.5,250.5 C 273.241,251.243 289.741,257.576 304,269.5C 313.636,284.376 317.803,300.709 316.5,318.5C 243.833,318.5 171.167,318.5 98.5,318.5C 97.2182,302.974 100.051,288.307 107,274.5C 116.522,265.655 127.688,259.821 140.5,257C 148.669,254.431 157.002,253.431 165.5,254C 191.552,269.59 218.218,270.59 245.5,257C 248.921,255.301 251.921,253.135 254.5,250.5 Z"/></g>
</svg>
